<svg width="460" height="460" viewBox="0 0 460 460" xmlns="http://www.w3.org/2000/svg" xmlns:xlink="http://www.w3.org/1999/xlink"><title>Git-Icon-1788C</title><defs><path id="a" d="M.3 460V.57h459.14V460z"/></defs><g fill="none" fill-rule="evenodd"><mask id="b" fill="#fff"><use xlink:href="#a"/></mask><path d="M450.77 209.825L250.175 9.235c-11.545-11.555-30.28-11.555-41.845 0l-41.65 41.66 52.835 52.84c12.28-4.15 26.365-1.365 36.15 8.42 9.845 9.85 12.6 24.05 8.35 36.375l50.925 50.925c12.325-4.25 26.535-1.505 36.38 8.355 13.75 13.745 13.75 36.03 0 49.785-13.76 13.76-36.04 13.76-49.805 0-10.345-10.35-12.9-25.55-7.66-38.29l-47.5-47.495v124.98a35.51 35.51 0 0 1 9.31 6.66c13.75 13.75 13.75 36.03 0 49.8-13.75 13.745-36.045 13.745-49.785 0-13.75-13.77-13.75-36.05 0-49.8a35.168 35.168 0 0 1 11.53-7.685v-126.14a34.868 34.868 0 0 1-11.53-7.68c-10.415-10.41-12.92-25.7-7.58-38.49l-52.09-52.1L8.66 208.895c-11.55 11.565-11.55 30.3 0 41.855l200.605 200.59c11.55 11.55 30.28 11.55 41.85 0L450.77 251.68c11.56-11.555 11.56-30.305 0-41.855" fill="#DE4C36" mask="url(#b)"/></g></svg>
