<?xml version="1.0" encoding="utf-8"?>
<!-- Generator: Adobe Illustrator 22.0.1, SVG Export Plug-In . SVG Version: 6.00 Build 0)  -->
<svg version="1.1" id="Ebene_1" xmlns="http://www.w3.org/2000/svg" xmlns:xlink="http://www.w3.org/1999/xlink" x="0px" y="0px"
	 viewBox="0 0 267.4 264.3" style="enable-background:new 0 0 267.4 264.3;" xml:space="preserve">
<style type="text/css">
	.st0{fill:#FFFFFF;}
</style>
<path class="st0" d="M266.9,118.7c-7.2,13.1-14.3,26.2-26.2,35.9c7.7-12.7,13.3-26.1,13.9-41.1c0.7-18.1-4.6-34.3-12.1-40
	c9.4,46-10.4,80.9-44.5,110.3c14.7,1.5,27.6-2.6,39.7-10.2c-19.8,20.6-43.5,33.3-73.3,36.2c11.6,10.7,23.9,15.7,38.1,16.4
	c-43.5,10.5-74.9-11-103.8-40.1c1,14.8,9.6,24.9,18.3,35c-1.3,0-2.1-0.2-2.8-0.6c-24.4-12.7-39.7-32.2-42.4-59.9
	c-2.1-21.8,2-42.3,19.3-58c8.9-8.1,19.2-13.8,30.7-17c2.6-0.7,6-0.5,8.4,0.6c20.1,8.7,40.6,16.2,62.5,18.9
	c10.5,1.3,21.2,1.9,31.4-2.1c9.3-3.7,13.1-10.2,11.8-20c-1.2-9.5-6.1-17.3-12.3-24.2c-24.8-27.7-55.4-44.4-93-46.6
	c-4.8-0.3-8.5-1.5-12.4-4.5c-15.7-11.8-32.4-9.7-45.3,5.3c-1.3,1.5-2.6,2.9-3.8,4.4C62.8,24.4,55.2,28,45.6,28.9
	C32.5,30.2,23.1,34.5,24,52.3c0.1,1.4,0,2.8-0.1,4.2c-0.2,8-2.3,14.9-9.4,19.6c-2.6,1.7-4.6,4.3-7,6.5c-6,5.5-7.2,12.3-5.1,19.9
	c1.3,4.6,2.8,9.1,4,13.7c1.7,6.4,1.5,12.7-3,18.1c-4.9,5.8-4.2,11.6-0.6,17.5c1.8,2.8,4,5.4,5.8,8.2c3.7,5.9,8.1,11.6,10.8,18
	c23.1,56.3,85,91.9,143.2,85.7c45.2-4.8,76.9-29,98-68.4c1.4-2.5,2.3-5.3,4-9.5c-14.7,10.7-28.2,20.2-45.3,22.7
	C253.3,188,270.8,159,266.9,118.7z M166.2,53.5c3.8,0,6.1,2.2,6.1,5.9c0,3.9-2.4,6.3-6.4,6.2c-3.7-0.1-5.7-2.4-5.8-5.9
	C160.3,55.6,162.4,53.5,166.2,53.5z"/>
</svg>
