<?xml version="1.0" encoding="utf-8"?>
<!-- Generator: Adobe Illustrator 17.1.0, SVG Export Plug-In . SVG Version: 6.00 Build 0)  -->
<!DOCTYPE svg PUBLIC "-//W3C//DTD SVG 1.1//EN" "http://www.w3.org/Graphics/SVG/1.1/DTD/svg11.dtd">
<svg version="1.1" id="Layer_1" xmlns="http://www.w3.org/2000/svg" xmlns:xlink="http://www.w3.org/1999/xlink" x="0px" y="0px"
	 viewBox="0 0 600 600" enable-background="new 0 0 600 600" xml:space="preserve">
<path fill="#0994D9" d="M488.062,225.601c0,55.26-44.795,100.055-100.054,100.055c-55.261,0-100.056-44.795-100.056-100.055
	c0-55.255,44.795-100.052,100.056-100.052C443.268,125.549,488.062,170.346,488.062,225.601z"/>
<path fill-rule="evenodd" clip-rule="evenodd" fill="#FF5858" d="M112,150.488c-0.334-2.358,0.682-3.428,2.957-4.128
	c0,0,88.277-30.835,102.389-35.003c0.309-0.091,0.584-0.17,0.82-0.234c0.545-0.149,1.416-0.159,1.887-0.027
	c9.877,2.768,96.896,33.284,103.35,35.268c2.276,0.699,3.293,1.769,2.959,4.129c-1.178,8.303-15.957,129.597-15.957,134.37
	c-0.244,2.286-0.989,3.82-3.092,4.978c0,0-78.891,43.859-87.498,47.122c-0.33,0.127-1.109,0.109-1.528-0.052
	c-7.893-3.009-61.974-33.161-87.232-47.07c-2.102-1.158-2.847-2.692-3.091-4.978C126.973,275.681,112,150.488,112,150.488z"/>
<path fill-rule="evenodd" clip-rule="evenodd" fill="#FFFFFF" d="M195.256,249.736c-7.561,0-5.65-0.262-8.254,5.459
	c-3.777,8.297-7.826,16.602-11.559,25.046c-1.021,2.227-1.52,2.528-3.221,2.528c-6,0-11.988,0-20,0
	c1.172-2.834,2.73-5.791,3.955-8.513c18.965-42.188,57.811-126.652,62.618-136.252c0.261-0.519,0.628-0.54,0.86-0.037
	c7.946,17.251,66.309,143.874,66.569,144.799c-0.992,0-17.992,0-20.006,0c-2.376,0-2.051-0.126-2.913-2.065
	c-4.348-9.549-8.824-19.211-13.073-28.807c-0.362-0.824-0.867-2.126-4.011-2.126C245.223,249.77,202.223,249.736,195.256,249.736z
	 M240.223,229.77c-0.133-0.808-19.291-41.527-20.859-44.881c-0.07-0.145-0.143-0.145-0.217,0
	c-1.113,2.164-17.753,39.154-20.099,44.881C201.204,229.77,238.204,229.77,240.223,229.77z"/>
<path fill="#FFFFFF" d="M395.084,283.216c-15.496,0-30.014-5.938-40.882-16.724c-10.892-10.809-16.888-25.273-16.888-40.735
	c0-15.477,5.994-29.997,16.881-40.885c10.889-10.888,25.41-16.884,40.889-16.884c14.918,0,26.854,4.582,38.7,14.861
	c1.021,0.908,3.593,3.409,3.593,3.409s-2.418,2.41-3.353,3.344l-6.768,6.924c-2.519,2.711-3.31,2.677-6.238,0.116
	c-7.165-6.27-16.817-9.979-25.779-9.979c-10.164,0-19.63,4.097-26.656,11.535c-6.918,7.321-10.729,16.999-10.729,27.249
	c0,10.223,3.836,19.871,10.8,27.163c7.06,7.392,16.556,11.464,26.739,11.464c11.312,0,18.877-5.011,25.741-9.921
	c2.924-2.092,2.991-2.473,5.784-0.117l0.097,0.088l7.124,6.97c0.816,0.733,3.223,3.148,3.223,3.148s-2.393,2.465-3.338,3.41
	C423.529,277.841,410.068,283.216,395.084,283.216z"/>
<path fill-rule="evenodd" clip-rule="evenodd" fill="#FF5858" d="M116.223,414.77l19-53h12l20.438,53h-15.438l-4-10h-13l-4,10
	H116.223z M141.804,376.935l-4.946,17.837h9.668L141.804,376.935z"/>
<path fill-rule="evenodd" clip-rule="evenodd" fill="#FF5858" d="M185.223,388.776v25.993h-14v-53h11l22,27v-27h14v53h-12
	L185.223,388.776z"/>
<path fill-rule="evenodd" clip-rule="evenodd" fill="#FF5858" d="M259.223,410.77c-3.348,3.148-6.915,4.538-11.311,4.538
	c-3.298,0-6.422-0.737-9.369-2.211c-2.948-1.474-5.533-3.459-7.757-5.958c-2.224-2.499-3.984-5.408-5.282-8.731
	c-1.301-3.322-1.949-6.832-1.949-10.53c0-3.747,0.661-7.232,1.986-10.455c1.322-3.222,3.146-6.02,5.47-8.394
	c2.324-2.372,5.06-4.246,8.207-5.621c3.148-1.373,6.521-2.061,10.118-2.061c2.248,0,4.395,0.263,6.445,0.787
	c2.047,0.524,3.946,1.3,5.695,2.323c1.748,1.024,3.31,2.248,4.684,3.672c1.374,1.424,2.511,3.035,3.41,4.835l-10.865,8.318
	c-0.9-2.099-2.262-3.785-4.086-5.059c-1.824-1.274-3.76-1.911-5.809-1.911c-1.499,0-2.885,0.35-4.159,1.049
	c-1.274,0.7-2.373,1.675-3.298,2.923c-0.925,1.249-1.648,2.735-2.173,4.459c-0.524,1.724-0.786,3.61-0.786,5.658
	c0,2.099,0.262,3.998,0.786,5.696c0.524,1.698,1.261,3.161,2.21,4.384c0.949,1.226,2.087,2.174,3.41,2.849
	c1.324,0.675,2.785,1.012,4.385,1.012c1.799,0,3.533-0.45,5.209-1.349c1.674-0.9,3.379-2.525,4.828-4.224h-9v-10h21v28h-12V410.77z"
	/>
<path fill-rule="evenodd" clip-rule="evenodd" fill="#FF5858" d="M300.867,402.466c1.699,0,3.149-0.375,4.348-1.125
	c1.199-0.749,2.173-1.734,2.922-2.961c0.75-1.223,1.299-2.634,1.65-4.233c0.349-1.599,0.523-3.273,0.523-5.022V361.77h14.912v27
	c0,3.698-0.773,7.513-1.721,10.735c-0.951,3.223-2.425,6.009-4.423,8.356c-1.998,2.349-4.509,4.196-7.532,5.546
	c-3.023,1.349-6.583,2.023-10.68,2.023c-4.247,0-7.882-0.712-10.904-2.136c-3.023-1.424-5.508-3.335-7.457-5.733
	c-1.948-2.398-3.373-5.183-4.271-8.357c-0.9-3.173-1.012-6.839-1.012-10.387v-27h14v27c0,1.749,0.451,3.742,0.802,5.366
	c0.349,1.623,0.899,3.048,1.648,4.271c0.749,1.225,1.71,2.199,2.886,2.923C297.73,402.103,299.169,402.466,300.867,402.466z"/>
<path fill-rule="evenodd" clip-rule="evenodd" fill="#FF5858" d="M330.223,414.77v-53h15v40h24v13H330.223z"/>
<path fill-rule="evenodd" clip-rule="evenodd" fill="#FF5858" d="M372.223,414.606l19.809-53.049h11.841l19.786,53.212H408.22
	l-2.997-10.163h-14l-4,10H372.223z M397.951,376.772l-4.946,17.837h9.667L397.951,376.772z"/>
<path fill-rule="evenodd" clip-rule="evenodd" fill="#FF5858" d="M427.223,414.77v-53h24c2.598,0,5.324,0.489,7.524,1.564
	c2.197,1.074,4.084,2.473,5.658,4.195c1.573,1.725,2.811,3.699,3.71,5.922c0.899,2.224,1.35,4.459,1.35,6.708
	c0,3.098-0.676,5.983-2.024,8.655c-1.349,2.674-3.224,4.859-5.621,6.559l12.403,19.397h-17l-10.018-16.176l-4.982,0.176v16H427.223z
	 M442.223,385.77l8.73,0.085c0.898,0,1.735-0.5,2.51-1.5c0.774-0.999,1.162-2.398,1.162-4.196c0-1.849-0.449-3.261-1.35-4.235
	c-0.898-0.974-2.154-1.153-3.053-1.153h-8V385.77z"/>
<path fill="#0994D9" d="M116.518,457.627c0-3.704,0.654-7.351,1.967-10.941c1.31-3.589,3.233-6.809,5.77-9.658
	c2.535-2.849,5.611-5.157,9.23-6.924c3.618-1.765,7.736-2.649,12.352-2.649c5.413,0,10.143,1.211,14.189,3.633
	c4.045,2.422,7.037,5.628,8.975,9.615l-12.736,9.061c-0.513-1.48-1.184-2.705-2.009-3.675c-0.826-0.969-1.724-1.737-2.692-2.309
	c-0.97-0.568-1.995-0.968-3.076-1.196c-1.084-0.228-2.082-0.342-2.992-0.342c-2.108,0-3.919,0.47-5.428,1.41
	c-1.511,0.94-2.766,2.166-3.761,3.676c-0.997,1.51-1.725,3.22-2.181,5.128c-0.455,1.91-0.683,3.804-0.683,5.685
	c0,2.108,0.27,4.132,0.812,6.068c0.541,1.939,1.339,3.648,2.395,5.129c1.053,1.482,2.335,2.664,3.846,3.547
	c1.509,0.885,3.232,1.325,5.172,1.325c0.967,0,1.965-0.128,2.99-0.385c1.026-0.257,2.01-0.684,2.949-1.282
	c0.94-0.599,1.795-1.367,2.564-2.308c0.77-0.94,1.381-2.094,1.838-3.462l13.59,8.119c-0.856,2.224-2.15,4.219-3.889,5.984
	c-1.739,1.768-3.719,3.248-5.941,4.444c-2.221,1.196-4.587,2.109-7.094,2.735c-2.508,0.627-4.957,0.94-7.351,0.94
	c-4.218,0-8.093-0.897-11.624-2.692c-3.535-1.795-6.568-4.174-9.104-7.138c-2.537-2.962-4.518-6.324-5.941-10.085
	C117.23,465.319,116.518,461.503,116.518,457.627z"/>
<path fill="#0994D9" d="M201.908,488.996c-4.332,0-8.278-0.883-11.838-2.65c-3.563-1.766-6.611-4.088-9.146-6.966
	c-2.536-2.877-4.502-6.168-5.898-9.873c-1.396-3.704-2.094-7.522-2.094-11.454c0-3.987,0.726-7.834,2.18-11.539
	c1.453-3.703,3.49-6.966,6.111-9.786c2.621-2.821,5.713-5.071,9.273-6.753c3.562-1.68,7.48-2.521,11.754-2.521
	c4.33,0,8.276,0.885,11.838,2.649c3.561,1.767,6.609,4.104,9.146,7.009c2.534,2.907,4.488,6.213,5.854,9.916
	c1.368,3.705,2.053,7.493,2.053,11.368c0,3.988-0.727,7.82-2.18,11.496c-1.453,3.675-3.462,6.924-6.026,9.744
	c-2.564,2.82-5.642,5.086-9.231,6.796C210.113,488.142,206.182,488.996,201.908,488.996z M189.855,458.226
	c0,2.051,0.242,4.031,0.727,5.939c0.483,1.911,1.239,3.605,2.266,5.086c1.025,1.483,2.308,2.68,3.847,3.591
	c1.538,0.911,3.333,1.367,5.384,1.367c2.107,0,3.932-0.47,5.471-1.41c1.538-0.94,2.792-2.165,3.762-3.676
	c0.968-1.509,1.694-3.233,2.18-5.172c0.482-1.936,0.727-3.901,0.727-5.897c0-2.051-0.258-4.03-0.77-5.94
	c-0.514-1.908-1.27-3.59-2.266-5.043c-0.998-1.453-2.266-2.62-3.803-3.504c-1.539-0.884-3.335-1.325-5.386-1.325
	c-2.108,0-3.919,0.457-5.427,1.367c-1.512,0.912-2.766,2.124-3.762,3.634c-0.998,1.511-1.739,3.22-2.223,5.128
	C190.098,454.28,189.855,456.23,189.855,458.226z"/>
<path fill="#0994D9" d="M253.223,458.77v30h-17v-61l9.791,0.026l48.209,60.974h-16.861L253.223,458.77z"/>
<path fill="#0994D9" d="M253.877,427.796h16.862l24.483,30.974v-31l17,0.026v60.974h-10.029L253.877,427.796z"/>
<path fill="#0994D9" d="M361.209,473.783v14.986h-42.986v-61l43,0.026v14.974h-26v8l22,0.104v12.896h-22v10L361.209,473.783z"/>
<path fill="#0994D9" d="M363.993,457.627c0-3.704,0.653-7.351,1.965-10.941c1.31-3.589,3.233-6.809,5.77-9.658
	c2.535-2.849,5.611-5.157,9.23-6.924c3.619-1.765,7.736-2.649,12.352-2.649c5.413,0,10.143,1.211,14.189,3.633
	c4.045,2.422,7.036,5.628,8.975,9.615l-12.736,9.061c-0.514-1.48-1.184-2.705-2.009-3.675c-0.827-0.969-1.724-1.737-2.692-2.309
	c-0.97-0.568-1.995-0.968-3.077-1.196c-1.083-0.228-2.081-0.342-2.991-0.342c-2.109,0-3.918,0.47-5.428,1.41
	c-1.511,0.94-2.766,2.166-3.762,3.676c-0.996,1.51-1.724,3.22-2.18,5.128c-0.456,1.91-0.683,3.804-0.683,5.685
	c0,2.108,0.269,4.132,0.812,6.068c0.541,1.939,1.339,3.648,2.394,5.129c1.054,1.482,2.336,2.664,3.847,3.547
	c1.509,0.885,3.233,1.325,5.171,1.325c0.968,0,1.966-0.128,2.992-0.385c1.024-0.257,2.008-0.684,2.947-1.282
	c0.94-0.599,1.796-1.367,2.564-2.308c0.771-0.94,1.382-2.094,1.839-3.462l13.59,8.119c-0.854,2.224-2.15,4.219-3.889,5.984
	c-1.738,1.768-3.718,3.248-5.941,4.444c-2.222,1.196-4.586,2.109-7.093,2.735c-2.509,0.627-4.958,0.94-7.352,0.94
	c-4.219,0-8.093-0.897-11.624-2.692c-3.535-1.795-6.569-4.174-9.103-7.138c-2.537-2.962-4.518-6.324-5.941-10.085
	C364.703,465.319,363.993,461.503,363.993,457.627z"/>
<path fill="#0994D9" d="M473.223,442.77h-17.075v46h-16.925v-46h-18v-14.974h52V442.77z"/>
</svg>
