<?xml version="1.0" encoding="utf-8"?>
<!-- Generator: Adobe Illustrator 19.1.0, SVG Export Plug-In . SVG Version: 6.00 Build 0)  -->
<svg version="1.1" id="Layer_1" xmlns:sketch="http://www.bohemiancoding.com/sketch/ns"
	 xmlns="http://www.w3.org/2000/svg" xmlns:xlink="http://www.w3.org/1999/xlink" x="0px" y="0px" width="185.9px" height="200px"
	 viewBox="-1347 801 185.9 200" style="enable-background:new -1347 801 185.9 200;" xml:space="preserve">
<style type="text/css">
	.st0{fill:#FFFFFF;}
	.st1{fill:#F2F2F2;}
	.st2{fill:#B3B3B3;}
</style>
<title>shield-large</title>
<desc>Created with Sketch.</desc>
<g id="Page-1" sketch:type="MSPage">
	<g id="shield-large" sketch:type="MSArtboardGroup">
		<g id="Imported-Layers" transform="translate(7.000000, 10.000000)" sketch:type="MSLayerGroup">
			<path id="Fill-1" sketch:type="MSShapeGroup" class="st0" d="M-1262.3,802.3l-83.1,29.6l12.6,110l70.5,39.1l71.7-39.6l13.7-110
				L-1262.3,802.3L-1262.3,802.3z M-1225.9,937.9l-11.4-26.1h-46.7l-10.5,26.1l-19.6,0.3l51.9-115.9l54.4,115.7L-1225.9,937.9
				L-1225.9,937.9z"/>
			<path id="Fill-2" sketch:type="MSShapeGroup" class="st0" d="M-1277.3,896.1h33.2l-18.2-36.7L-1277.3,896.1"/>
			<path id="Fill-3" sketch:type="MSShapeGroup" class="st0" d="M-1262.3,802.3l-83.1,29.6l12.6,110l70.5,39.1l71.7-39.6l13.7-110
				L-1262.3,802.3L-1262.3,802.3z M-1225.9,937.9l-11.4-26.1h-46.7l-10.5,26.1l-19.6,0.3l51.9-115.9l54.4,115.7L-1225.9,937.9
				L-1225.9,937.9z"/>
			<path id="Fill-4" sketch:type="MSShapeGroup" class="st0" d="M-1277.3,896.1h33.2l-18.2-36.7L-1277.3,896.1"/>
			<path id="Fill-5" sketch:type="MSShapeGroup" class="st1" d="M-1262.3,859.4v36.7h18.2L-1262.3,859.4"/>
			<path id="Fill-6" sketch:type="MSShapeGroup" class="st1" d="M-1262.3,802.3v19.9l54.4,115.7h-18l-11.4-26.1h-24.9V981l71.7-39.6
				l13.7-110L-1262.3,802.3"/>
			<path id="Fill-7" sketch:type="MSShapeGroup" class="st0" d="M-1277.3,896.1h15v-36.7L-1277.3,896.1"/>
			<path id="Fill-8" sketch:type="MSShapeGroup" class="st0" d="M-1284.1,911.8l-10.5,26.1l-19.6,0.3l51.9-115.9v-19.9l-83.1,29.6
				l12.6,110l70.5,39.1v-69.2L-1284.1,911.8"/>
		</g>
	</g>
</g>
<g>
	<path class="st2" d="M-1255.3,812.3l85.5,29.1l-13.7,110l-71.7,39.6l-70.5-39.1l-12.6-110L-1255.3,812.3 M-1255.4,803.8l-2.6,0.9
		l-83.1,29.6l-6,2.1l0.7,6.3l12.6,110l0.5,4.1l3.6,2l70.5,39.1l3.9,2.1l3.9-2.1l71.7-39.6l3.6-2l0.5-4l13.7-110l0.8-6.5l-6.2-2.1
		l-85.5-29.1L-1255.4,803.8L-1255.4,803.8z"/>
</g>
</svg>
