<svg width="92" height="92" viewBox="0 0 92 92" xmlns="http://www.w3.org/2000/svg" xmlns:xlink="http://www.w3.org/1999/xlink"><title>Git-Icon-White</title><defs><path id="a" d="M.06 92V.114h91.828V92z"/></defs><g fill="none" fill-rule="evenodd"><mask id="b" fill="#fff"><use xlink:href="#a"/></mask><path d="M90.154 41.965L50.035 1.847a5.918 5.918 0 0 0-8.369 0l-8.33 8.332 10.567 10.568a7.026 7.026 0 0 1 8.9 8.959l10.185 10.185a7.028 7.028 0 0 1 7.276 1.671 7.04 7.04 0 0 1 0 9.957 7.041 7.041 0 0 1-11.493-7.658l-9.5-9.499v24.996c.67.332 1.303.775 1.862 1.332a7.042 7.042 0 1 1-7.651-1.537V33.925a7.041 7.041 0 0 1-3.822-9.234l-10.418-10.42-27.51 27.508a5.922 5.922 0 0 0 0 8.371l40.121 40.118a5.92 5.92 0 0 0 8.37 0l39.931-39.932a5.918 5.918 0 0 0 0-8.371" fill="#FFFFFE" mask="url(#b)"/></g></svg>