<svg id="logo-rohde-und-schwarz" xmlns="http://www.w3.org/2000/svg" viewBox="0 0 270 55"><style>.st0{fill:#009bea}</style><path class="st0" d="M0 36.2h10.6c3.2 0 5.9 1.7 5.9 5.1 0 1.9-.9 3.8-2.7 4.5 1.5.6 2.4 2.2 2.6 4.5.1.9.1 3 .6 3.9h-5.5c-.3-.9-.4-1.8-.5-2.8-.2-1.7-.3-3.5-2.5-3.5h-3v6.3H0v-18zm5.5 7.9h2.9c1 0 2.4-.2 2.4-1.8 0-1.1-.6-1.8-2.7-1.8H5.5v3.6zm23.1-8.3c5.5 0 9.1 3.9 9.1 9.4s-3.7 9.4-9.1 9.4c-5.5 0-9.1-3.9-9.1-9.4-.1-5.5 3.6-9.4 9.1-9.4zm0 14.4c1.4 0 3.6-.9 3.6-4.9s-2.2-4.9-3.6-4.9-3.6.9-3.6 4.9 2.1 4.9 3.6 4.9zm12.6-14h5.5v6.3h5.2v-6.3h5.5v18h-5.5v-7.1h-5.2v7.1h-5.5v-18zm21.6 0h9.1c6 0 8.1 4.4 8.1 9 0 5.5-2.9 9-9.2 9h-8v-18zm5.6 13.4h2.2c3.5 0 4-2.8 4-4.5 0-1.1-.4-4.3-4.4-4.3h-1.8v8.8zm15.1-13.4h14.9v4.6H89V43h8.5v4.3H89v2.2h9.6v4.6H83.5V36.2zm48 12c0 .5.1.9.2 1.2.4 1.1 1.6 1.3 2.6 1.3.9 0 2.3-.3 2.3-1.6 0-.9-.8-1.2-3.9-2.1-2.9-.8-6.1-1.6-6.1-5.2 0-4.2 3.6-6 7.3-6 3.9 0 7.4 1.5 7.5 5.9h-5.2c.1-.7-.2-1.1-.7-1.4-.5-.3-1.1-.5-1.6-.5-.8 0-2 .2-2 1.2.1 1.3 2.7 1.6 5.2 2.3 2.5.7 5.1 1.9 5.1 5.2 0 4.7-4.3 6.2-8.3 6.2-2 0-7.9-.7-7.9-6.5h5.5zm25.2-5.3c-.1-.7-.6-2.6-2.9-2.6-2.6 0-3.4 2.5-3.4 4.9 0 2.4.8 4.9 3.4 4.9 1.9 0 2.6-1.3 2.9-3h5.4c0 3.6-3 7.5-8.2 7.5-5.8 0-9.1-4.1-9.1-9.4 0-5.7 3.6-9.4 9.1-9.4 4.9 0 7.7 2.6 8.1 7.1h-5.3zm9.6-6.7h5.5v6.3h5.2v-6.3h5.5v18H177v-7.1h-5.2v7.1h-5.5v-18zm39.6 18h-5.4l-1.9-11-1.9 11h-5.4l-4.9-18h5.4l2.2 11.1 2.2-11.1h4.9l2.1 11.3 2.2-11.3h5.5l-5 18zm12.4-18h5.4l6.6 18h-5.7l-.8-2.6h-5.7l-.8 2.6h-5.6l6.6-18zm4.4 11.6l-1.6-5.5-1.7 5.5h3.3zm10.8-11.6h10.6c3.2 0 5.9 1.7 5.9 5.1 0 1.9-.9 3.8-2.7 4.5 1.5.6 2.4 2.2 2.6 4.5.1.9.1 3 .6 3.9H245c-.3-.9-.4-1.8-.5-2.8-.1-1.7-.3-3.5-2.5-3.5h-2.9v6.3h-5.5l-.1-18zm5.6 7.9h2.9c1 0 2.4-.2 2.4-1.8 0-1.1-.6-1.8-2.7-1.8h-2.6v3.6zm14.8 5.8l8.4-9.1h-7.9v-4.6h15.2v4l-8.4 9.4h8.9v4.6H254v-4.3zM18 .2l-18 18 18 18 18-18-18-18zm14.5 18l-7.2 7.2c.3-.4.5-.9.5-1.5 0-1.9-1.8-2.2-2.4-2.4-2.1-.5-2.4-.6-2.4-1.2 0-.7.7-.9 1.2-.9.9 0 1.6.3 1.6 1.2h1.7c0-1.9-1.6-2.6-3.3-2.6-.8 0-1.6.2-2.2.7.7-.8 1.3-1.7 1.8-2.7.9-1.8 2.3-3.3 4.1-4.3 3.2 3.1 6.3 6.2 6.6 6.5zm-20.9 8s-.1-.2-.2-.3c1-1.8 2.6-3.3 4.5-4.2 1.4-.7 2.6-1.6 3.6-2.6-.2.3-.3.7-.3 1.2 0 1.5 1.2 2 2.4 2.3 1.2.3 2.4.5 2.4 1.4 0 .8-1 1-1.6 1-1 0-1.8-.4-1.8-1.5h-1.7c0 2 1.7 2.9 3.5 2.9 1.1 0 1.9-.3 2.5-.7L18 32.6l-6.4-6.4zm6.5-22.5l6 6c-1.9 1.3-3.5 3-4.5 5.1-.4.9-1 1.7-1.6 2.4-.1-.3-.2-.5-.2-.7-.1-.8-.3-1.7-1.2-1.9.9-.4 1.3-1.1 1.3-2.1 0-1.2-.9-2.3-2.4-2.3h-3.9l6.5-6.5zm-2 9.1c0 .8-.4 1.2-1.2 1.2h-2v-2.3h2c.8-.1 1.2.3 1.2 1.1zM9.6 24.2l-.1-.1-.6-.6s-4.2-4.2-5.3-5.2l7.5-7.5v7.7h1.8v-3.2h1.8c.9 0 1.2.4 1.4 1.2.1.6.3 1.5.5 2.1-.5.4-1.1.7-1.7 1-2.2 1-4 2.6-5.3 4.6zM115.5 53c-1.7 1.3-3.2 1.7-5.2 1.7-3.5 0-6.2-2.4-6.2-5.9 0-2.4 2.1-4.1 4-5.1-.8-.9-1.4-2-1.4-3.3 0-2.9 2.7-4.7 5.4-4.7 3.4 0 5.8 1.5 5.8 4.7 0 2.1-1.6 3.8-3.3 4.7l1.4 1.7c.3-.4.6-.9.7-1.4h4.2c-.3 1.6-1 3.2-2.1 4.4l3.7 4.5h-6l-1-1.3zm-4.8-5.9c-.7.4-1.8 1-1.8 2s.9 1.7 1.7 1.7c.8 0 1.5-.5 2.1-1.1l-2-2.6zm1.5-4.9c.7-.3 1.5-1 1.5-1.9 0-.7-.5-1.2-1.2-1.2-.6 0-1.4.5-1.4 1.3-.1.6.6 1.2 1.1 1.8z"/></svg>