<svg id="amLayer_1" xmlns="http://www.w3.org/2000/svg" viewBox="0 0 146 77" width="146" height="77"><style>.amst0{fill:#292a37}.amst1{fill:#282a37}.amst2{filter:url(#amAdobe_OpacityMaskFilter)}.amst3{fill:#fff}.amst4{mask:url(#amb);fill:#282a37}.amst5{filter:url(#amAdobe_OpacityMaskFilter_1_)}.amst6{mask:url(#amd);fill:#282a37}.amst7{fill:#489241}.amst8{fill:#248f40}.amst9{fill:#81c241}.amst10{filter:url(#amAdobe_OpacityMaskFilter_2_)}.amst11{mask:url(#amf);fill:#1fa153}.amst12{fill:#4dae48}.amst13{fill:#aacf37}</style><path class="amst0" d="M65 46.3h6.7v2h-4.4v4.3h3.9v1.9h-3.9v4.4h4.4v2H65zm10.6 0h1.8l3.5 14.6h-2.3l-.6-3.1h-3l-.7 3.1H72l3.6-14.6zm1 4.2l-1.2 5.3h2.3l-1.1-5.3zm5.5-4.2h2.3v12.6h4.4v2h-6.7zm27 0h2.2v12.6h4.4v2h-6.6zm8.1 0h2.2l2.8 7.7h.1l2.8-7.7h2.2v14.6h-2.2V52h-.1l-2.1 6.3h-1.2l-2.2-6.3v8.9h-2.3zm12.3 0h6.7v2h-4.5v4.3h3.8v1.9h-3.8v4.4h4.5v2h-6.7zm13.6 0v8.8h-.1l-3.4-8.8h-2.1v14.6h2.3v-8.7l3.4 8.7h2.2V46.3zm-87.5 0h3.6c2.7 0 4 1.4 4 4.3 0 1.7-.5 2.9-2 3.7l2.4 6.7h-2.4l-2-6.4H58v6.3h-2.3V46.3h-.1zm2.3 6.5h1.3c1.5 0 1.8-.9 1.8-2.3 0-1.5-.2-2.3-2-2.3h-1.2c.1.1.1 4.6.1 4.6zm32.3-6.5h3.4c2.5 0 3.9 1.4 3.9 3.8v6.8c0 2.7-1.5 4-4.1 4h-3.1c-.1 0-.1-14.6-.1-14.6zM92.5 59h1.1c1.3 0 1.7-.5 1.7-1.8v-7c0-1.2-.4-1.8-1.7-1.8h-1.1V59zm7.1-9.2c0-2.4 1.9-3.6 3.8-3.6 1.8 0 3.8 1.2 3.8 3.6v7.7c0 2.4-2 3.6-3.8 3.6s-3.8-1.2-3.8-3.6v-7.7zm2.1 7.7c0 1 .6 1.5 1.5 1.5s1.5-.4 1.5-1.5v-7.7c0-1-.6-1.5-1.5-1.5s-1.5.4-1.5 1.5v7.7z" id="amrealdolmen"/><g id="amslogan-rd"><path class="amst1" d="M106 73.4l-.6 2.1.3.1 1-2.2zm6.3.7c-.2.1-.4.2-.6.2-.6 0-1.1-.5-1.1-1.3v-3.8h-.9v-.4h.9v-2.2h.4v2.2h1.3v.4H111V73c0 .5.3.8.7.8.2 0 .4-.1.6-.2.1 0 .1.5 0 .5zm.8-2.7c0-1.7.8-2.8 2.2-2.8s2.2 1.1 2.2 2.8c0 1.7-.8 2.8-2.2 2.8-1.4.1-2.2-1.1-2.2-2.8m4 0c0-1.4-.6-2.4-1.8-2.4s-1.8 1-1.8 2.4.6 2.5 1.8 2.5 1.8-1.1 1.8-2.5"/><g transform="translate(118 69)"><defs><filter id="amAdobe_OpacityMaskFilter" filterUnits="userSpaceOnUse" x=".5" y="-.4" width="4.1" height="7.8"><feColorMatrix values="1 0 0 0 0 0 1 0 0 0 0 0 1 0 0 0 0 0 1 0"/></filter></defs><mask maskUnits="userSpaceOnUse" x=".5" y="-.4" width="4.1" height="7.8" id="amb"><g class="amst2"><path id="ama" class="amst3" d="M.5 7.4h4.2V-.4H.5z"/></g></mask><path class="amst4" d="M4.2 4.1c-.4.8-1 1.2-1.7 1.2-1.2 0-2-1.3-2-2.8 0-1.5.8-2.8 2-2.8.8 0 1.3.3 1.7 1v-.9h.4v5.1c0 1.8-1.1 2.6-2.1 2.6-.6 0-1.3-.3-1.6-.9l.3-.3c.4.5.8.7 1.3.7.9 0 1.7-.8 1.7-2.1v-.8zm0-2.6C4 .6 3.4 0 2.6 0 1.7 0 1 1.1 1 2.4c0 1.4.6 2.5 1.6 2.5.8 0 1.4-.8 1.6-1.8V1.5z"/></g><path class="amst1" d="M127.9 73.2c-.4.6-1.1 1-1.8 1-1.3 0-2.2-1.2-2.2-2.8 0-1.7.8-2.8 2.2-2.8 1.3 0 2.1 1.1 2.1 2.8v.1h-3.8c0 1.4.7 2.4 1.7 2.4.6 0 1.2-.3 1.5-.9l.3.2zm-.2-2.1c-.1-1.3-.7-2.2-1.7-2.2s-1.6.9-1.7 2.2h3.4zm3.5 3c-.2.1-.4.2-.6.2-.6 0-1.1-.5-1.1-1.3v-3.8h-.9v-.4h.9v-2.2h.4v2.2h1.3v.4h-1.3V73c0 .5.4.8.7.8.2 0 .4-.1.6-.2v.5zm4.6 0v-3.4c0-1.1-.5-1.7-1.4-1.7-.7 0-1.6.5-1.6 1.8v3.3h-.4v-7.6h.4v3c.3-.6 1-.9 1.6-.9 1.2 0 1.8 1 1.8 2.2v3.3h-.4zm5.6-.9c-.4.6-1.1 1-1.9 1-1.3 0-2.2-1.2-2.2-2.8 0-1.7.8-2.8 2.1-2.8s2.1 1.1 2.1 2.8v.1h-3.8c0 1.4.7 2.4 1.7 2.4.6 0 1.2-.3 1.5-.9l.5.2zm-.2-2.1c-.1-1.3-.7-2.2-1.6-2.2s-1.6.9-1.7 2.2h3.3zm1.6 3v-5.4h.4v.8c.3-.6 1-.9 1.6-.9.2 0 .5.1.7.1l-.2.4c-.2-.1-.4-.1-.6-.1-.7 0-1.6.6-1.6 1.8v3.3h-.3zm-84.2 0c-.2.1-.4.2-.6.2-.6 0-1.1-.5-1.1-1.3v-3.8H56v-.4h.9v-2.2h.4v2.2h1.3v.4h-1.3V73c0 .5.3.8.7.8.2 0 .4-.1.5-.2v.5zm.7-2.7c0-1.7.8-2.8 2.2-2.8 1.4 0 2.2 1.1 2.2 2.8 0 1.7-.8 2.8-2.2 2.8-1.4.1-2.2-1.1-2.2-2.8m4 0c0-1.4-.6-2.4-1.8-2.4-1.1 0-1.8 1-1.8 2.4s.6 2.5 1.8 2.5c1.1 0 1.8-1.1 1.8-2.5"/><g transform="translate(67 69)"><defs><filter id="amAdobe_OpacityMaskFilter_1_" filterUnits="userSpaceOnUse" x=".2" y="-.4" width="4.1" height="7.8"><feColorMatrix values="1 0 0 0 0 0 1 0 0 0 0 0 1 0 0 0 0 0 1 0"/></filter></defs><mask maskUnits="userSpaceOnUse" x=".2" y="-.4" width="4.1" height="7.8" id="amd"><g class="amst5"><path id="amc" class="amst3" d="M.2 7.4h4.1V-.4H.2z"/></g></mask><path class="amst6" d="M3.9 4.1c-.4.8-1 1.2-1.7 1.2C1 5.3.2 4 .2 2.5.2 1 1-.3 2.2-.3c.8 0 1.3.3 1.7 1v-.9h.4v5.1c0 1.8-1.1 2.6-2.2 2.6-.7 0-1.3-.3-1.6-.9l.3-.3c.4.5.9.7 1.4.7.8 0 1.7-.8 1.7-2.1v-.8zm0-2.6C3.6.6 3 0 2.3 0 1.3 0 .7 1.1.7 2.4c0 1.4.6 2.5 1.6 2.5.8 0 1.4-.8 1.6-1.8V1.5z"/></g><path class="amst1" d="M76.6 73.2c-.4.6-1.1 1-1.8 1-1.3 0-2.2-1.2-2.2-2.8 0-1.7.8-2.8 2.2-2.8 1.3 0 2.1 1.1 2.1 2.8v.1H73c0 1.4.8 2.4 1.7 2.4.6 0 1.2-.3 1.5-.9l.4.2zm-.3-2.1c-.1-1.3-.7-2.2-1.6-2.2-.9 0-1.6.9-1.7 2.2h3.3zm3.6 3c-.2.1-.4.2-.6.2-.6 0-1.1-.5-1.1-1.3v-3.8h-.9v-.4h.9v-2.2h.4v2.2h1.3v.4h-1.3V73c0 .5.3.8.7.8.2 0 .4-.1.6-.2v.5zm5.8 0c-.2.1-.4.2-.6.2-.6 0-1.1-.5-1.1-1.3v-3.8h-.9v-.4h.9v-2.2h.4v2.2h1.3v.4h-1.3V73c0 .5.4.8.7.8.2 0 .4-.1.6-.2v.5zm4.6 0v-3.4c0-1.1-.5-1.7-1.4-1.7-.7 0-1.6.5-1.6 1.8v3.3h-.4v-7.6h.4v3c.3-.6 1-.9 1.6-.9 1.2 0 1.8 1 1.8 2.2v3.3h-.4zm5.6-.9c-.4.6-1.1 1-1.8 1-1.3 0-2.2-1.2-2.2-2.8 0-1.7.8-2.8 2.2-2.8s2.1 1.1 2.1 2.8v.1h-3.8c0 1.4.7 2.4 1.7 2.4.6 0 1.2-.3 1.5-.9l.3.2zm-.2-2.1c-.1-1.3-.7-2.1-1.6-2.1-.9 0-1.6.9-1.7 2.2h3.3zm1.7 3v-5.4h.4v.8c.3-.6 1-.9 1.6-.9.2 0 .5.1.7.1l-.2.4c-.2-.1-.4-.1-.6-.1-.8 0-1.6.6-1.6 1.8v3.3h-.3zm7.1-.9c-.4.6-1.1 1-1.8 1-1.3 0-2.2-1.2-2.2-2.8 0-1.7.8-2.8 2.2-2.8 1.3 0 2.1 1.1 2.1 2.8v.1H101c0 1.4.7 2.4 1.7 2.4.6 0 1.2-.3 1.5-.9l.3.2zm-.2-2.1c-.1-1.3-.7-2.2-1.7-2.2-.9 0-1.6.9-1.7 2.2h3.4z"/></g><g id="ammark"><path class="amst7" d="M0 48.7l22.9 27.7-.1-27.7z"/><path class="amst8" d="M47.6 76.4L23 48.9l-.2-.2H22l.9 27.7z"/><path class="amst9" d="M25 48.7s3.2-.1 7.4-1.9c1.7-.7 3.3-1.6 4.8-2.6 6-4.3 10.3-10.8 10.7-18.6H30.4c-.6 3.4-3.5 5.8-6.9 5.9h-.8v17.1l2.3.1z"/><defs><filter id="amAdobe_OpacityMaskFilter_2_" filterUnits="userSpaceOnUse" x="0" y="0" width="23.7" height="16.9"><feColorMatrix values="1 0 0 0 0 0 1 0 0 0 0 0 1 0 0 0 0 0 1 0"/></filter></defs><mask maskUnits="userSpaceOnUse" x="0" y="0" width="23.7" height="16.9" id="amf"><g class="amst10"><path id="ame" class="amst3" d="M23.2 0H0v16.9h23.2z"/></g></mask><path class="amst11" d="M22.9 16.9h.9L23.5 0H0v16.8c0 .1 22.9.1 22.9.1z"/><path class="amst12" d="M23.6 16.9s.2 0 .5.1c1.6.2 6.8 1.5 6.4 8.6H48v-1c0-4.2-1.1-8.3-3-12.1-1.4-2.6-3.2-4.9-5.5-6.7-2.4-2-5.2-3.5-8.2-4.4C29 .8 26.7.3 24.4 0h-1.2v16.8l.4.1z"/><path class="amst13" d="M20 48.7h3.7v-17l-.3-.2c-1.9.1-23.4 0-23.4 0v17.2h20z"/></g></svg>