<svg class="thtrm-logo" xmlns="http://www.w3.org/2000/svg" xmlns:xlink="http://www.w3.org/1999/xlink" viewBox="0 0 384 100"><title>thoughtram</title><desc>The thoughtram logo</desc><defs><path d="M.04 47.683v-.3l2.292-14.398 3.4-2.336h8.177l-.463 10.698a3.484 3.484 0 0 0 1.033 6.759 3.484 3.484 0 1 0 1.614-6.644l.498-11.513 9.268-8.087a3.483 3.483 0 0 0 4.183-5.408 3.485 3.485 0 0 0-5.925 3.412L14.795 28H7.658V16.667l8.048-8.461 4.344.391 3.25-4.014h11.317L36.504.59H57.36l6.104 3.715v2.86l-5.169 3.815H47.47a3.485 3.485 0 1 0-3.222 4.812c1.456 0 2.7-.894 3.222-2.163h9.937l-.003 4.193-7.201 4.311 1.616 10.029a3.485 3.485 0 1 0 5.262 2.415 3.485 3.485 0 0 0-2.646-2.837l-1.331-8.256 6.948-4.161.004-6.348 5.01-3.7 10.077 2.905v6.122l8.957 3.974 3.052 12.043-5.049 8.874h-5.777v-5.546l-2.442-5.373a3.484 3.484 0 0 0-3.981-5.558 3.484 3.484 0 1 0 1.57 6.654l2.204 4.852v7.053l-2.558 4.02H46.295l-2.465 4.213h-3.645l-7.326-8.042 2.049-9.007a3.484 3.484 0 0 0 .197-6.834 3.485 3.485 0 1 0-2.78 6.247L29.97 46.225l7.518 8.254-3.536 3.802h-8.21l-4.77 4.44-11.698-3.326L.04 47.683z" id="a"/></defs><g fill="none" fill-rule="evenodd"><path fill="#1A1918" d="M59.505 74.252H50.54v-8.297h27.8v8.297h-8.965l-9.87 25.033V74.252m21.219-8.297h8.439V78.83h13.065V65.955h8.44v33.33h-8.44V85.839H89.163v13.446h-8.44v-33.33m55.358 24.986c1.4-.764 2.511-1.86 3.338-3.29s1.24-3.1 1.24-5.007c0-1.908-.405-3.568-1.215-4.983a8.578 8.578 0 0 0-3.314-3.29c-1.4-.779-2.957-1.168-4.674-1.168-1.749 0-3.322.39-4.72 1.168a8.57 8.57 0 0 0-3.314 3.29c-.81 1.415-1.216 3.075-1.216 4.983 0 1.907.406 3.577 1.216 5.006.81 1.43 1.923 2.527 3.338 3.291 1.414.762 2.98 1.144 4.696 1.144 1.685 0 3.226-.382 4.625-1.144zm-13.756 6.866c-2.718-1.462-4.863-3.505-6.437-6.128-1.573-2.622-2.36-5.633-2.36-9.035 0-3.401.787-6.42 2.36-9.06 1.574-2.638 3.72-4.688 6.437-6.15 2.718-1.462 5.762-2.194 9.131-2.194 3.338 0 6.366.732 9.084 2.194s4.855 3.512 6.413 6.15c1.557 2.64 2.336 5.659 2.336 9.06 0 3.402-.78 6.413-2.336 9.035-1.558 2.623-3.695 4.666-6.413 6.128-2.718 1.463-5.746 2.193-9.084 2.193-3.37 0-6.413-.73-9.13-2.193zm33.592-1.837c-2.543-2.685-3.814-6.238-3.814-10.655v-19.36h8.44v19.454c0 2.226.595 3.91 1.787 5.055 1.193 1.145 2.837 1.717 4.935 1.717 2.098 0 3.735-.572 4.911-1.717 1.176-1.145 1.764-2.829 1.764-5.055V65.955h8.44v19.36c0 4.45-1.263 8.01-3.79 10.68-2.528 2.67-6.303 4.005-11.325 4.005-5.023 0-8.805-1.342-11.348-4.03m38.169 1.932c-2.75-1.398-4.871-3.41-6.365-6.032-1.495-2.622-2.242-5.698-2.242-9.226 0-3.529.747-6.604 2.242-9.226 1.494-2.623 3.615-4.641 6.365-6.056 2.75-1.414 5.937-2.122 9.561-2.122 2.415 0 4.554.23 6.413.691a17.2 17.2 0 0 1 5.174 2.218v8.01a13.287 13.287 0 0 0-4.745-2.407c-1.764-.494-3.791-.74-6.08-.74-1.97 0-3.727.39-5.268 1.168a8.87 8.87 0 0 0-3.648 3.362c-.89 1.462-1.335 3.163-1.335 5.102 0 3.02.882 5.405 2.647 7.152 1.764 1.749 4.155 2.623 7.176 2.623 1.685 0 3.098-.287 4.244-.859v-5.34h-5.102v-5.913h13.112v16.594c-3.402 2.067-7.598 3.099-12.588 3.099-3.624 0-6.811-.7-9.56-2.098m25.486-31.947h8.439V78.83h13.065V65.955h8.44v33.33h-8.44V85.839h-13.065v13.446h-8.44v-33.33m41.96 7.105h-9.394v-7.105h27.275v7.105h-9.441v26.225h-8.44V73.06m33.998 8.678c1.683 0 2.987-.325 3.908-.977.923-.652 1.384-1.772 1.384-3.362 0-1.653-.453-2.79-1.36-3.41-.905-.62-2.216-.929-3.933-.929h-5.054v8.678h5.054zm-13.495-15.783h14.972c3.91 0 6.97.985 9.18 2.956 2.208 1.972 3.313 4.8 3.313 8.488 0 2.48-.541 4.594-1.622 6.342-1.08 1.748-2.606 3.051-4.577 3.91l5.913 11.634h-8.678l-5.294-10.442h-4.767v10.442h-8.44v-33.33zm50.51 19.979l-4.054-11.206-4.1 11.206h8.154zm-8.201-19.979h8.296l13.304 33.33h-8.63l-2.671-6.866H322.34l-2.67 6.866h-8.677l13.35-33.33zm23.673 0h8.106l9.632 20.646 9.679-20.646h8.058v33.33h-7.867V82.548l-7.963 16.737h-3.815l-7.915-16.737v16.737h-7.915v-33.33"/><mask id="b" fill="#fff"><use xlink:href="#a"/></mask><path fill="#74C0D0" mask="url(#b)" d="M9.274 59.395l5.356-14.772 11.112 13.658-4.77 4.44-11.698-3.326"/><path fill="#65A1B0" mask="url(#b)" d="M38.393 53.507l-6.978-7.67-16.785-1.214 11.112 13.658h8.21l4.44-4.774"/><path fill="#65A1B0" mask="url(#b)" d="M0 47.632l14.63-3.009-5.356 14.772L0 47.632"/><path fill="#518F9C" mask="url(#b)" d="M0 47.632l2.332-14.647L14.63 44.623 0 47.633"/><path fill="#457F8B" mask="url(#b)" d="M2.332 32.985L14.63 44.623l19.691-11.6-19.029-3.698H7.658l-5.326 3.66"/><path fill="#518F9C" mask="url(#b)" d="M34.321 33.023l-19.691 11.6 16.785 1.214 2.906-12.814"/><path fill="#65A1B0" mask="url(#b)" d="M15.706 8.206l11.71 10.539-19.758-2.078 8.048-8.461"/><path fill="#74C0D0" mask="url(#b)" d="M7.658 16.667l19.757 2.078-12.123 10.58H7.658V16.667"/><path fill="#457F8B" mask="url(#b)" d="M20.05 8.597l7.365 10.148L15.706 8.206l4.344.391"/><path fill="#74C0D0" mask="url(#b)" d="M23.3 4.583l4.115 14.162L20.05 8.597l3.25-4.014"/><path fill="#518F9C" mask="url(#b)" d="M34.617 4.583H23.301l4.114 14.162 7.202-14.162"/><path fill="#74C0D0" mask="url(#b)" d="M34.617 4.583l9.63 7.722L36.505.589l-1.887 3.994"/><path fill="#457F8B" mask="url(#b)" d="M36.504.59l7.744 11.715L57.36.589H36.504"/><path fill="#518F9C" mask="url(#b)" d="M57.36.59L44.248 12.304h14.484l4.732-3.494V4.304L57.36.589"/><path fill="#65A1B0" mask="url(#b)" d="M34.617 4.583l9.63 7.722-16.832 6.44 7.202-14.162m-7.202 14.162l6.906 14.278-19.029-3.698 12.123-10.58"/><path fill="#518F9C" mask="url(#b)" d="M27.415 18.745l6.906 14.278L53.64 35.13 27.415 18.745"/><path fill="#74C0D0" mask="url(#b)" d="M27.415 18.745L53.64 35.13l-9.392-22.825-16.833 6.44"/><path fill="#65A1B0" mask="url(#b)" d="M44.248 12.305L53.64 35.13l-1.987-12.322 7.075-4.237.004-6.266H44.248"/><path fill="#74C0D0" mask="url(#b)" d="M46.295 49.294L53.64 35.13l17.48 14.164H46.294"/><path fill="#457F8B" mask="url(#b)" d="M71.12 49.294L53.64 35.13l21.362 8.062-3.883 6.102"/><path fill="#65A1B0" mask="url(#b)" d="M34.321 33.023l9.51 20.484 2.464-4.213L53.64 35.13l-19.32-2.107"/><path fill="#74C0D0" mask="url(#b)" d="M43.83 53.507l-9.509-20.484-2.906 12.814 6.978 7.67h5.437"/><path fill="#518F9C" mask="url(#b)" d="M75.143 18.301l-3.798 11.587L84.1 22.275 75.143 18.3"/><path fill="#65A1B0" mask="url(#b)" d="M84.1 22.275l-12.755 7.613 15.807 4.43L84.1 22.275"/><path fill="#74C0D0" mask="url(#b)" d="M87.152 34.318l-15.807-4.43 10.758 13.304 5.05-8.874"/><path fill="#65A1B0" mask="url(#b)" d="M71.345 29.888L53.64 35.13l21.362 8.062h7.101L71.345 29.888"/><path fill="#518F9C" mask="url(#b)" d="M53.64 35.13l17.705-5.242-12.617-11.317-7.075 4.237L53.64 35.13"/><path fill="#457F8B" mask="url(#b)" d="M75.143 12.18v6.12l-3.798 11.587L63.464 8.81l11.679 3.368"/><path fill="#65A1B0" mask="url(#b)" d="M64.622 7.956l6.723 21.932-12.617-11.317.004-6.266 5.89-4.349"/></g></svg>