<svg id="Ebene_1" xmlns="http://www.w3.org/2000/svg" viewBox="0 0 267.4 264.3"><style>.st0{fill:#b7178c}</style><path class="st0" d="M266.9 118.7c-7.2 13.1-14.3 26.2-26.2 35.9 7.7-12.7 13.3-26.1 13.9-41.1.7-18.1-4.6-34.3-12.1-40 9.4 46-10.4 80.9-44.5 110.3 14.7 1.5 27.6-2.6 39.7-10.2-19.8 20.6-43.5 33.3-73.3 36.2 11.6 10.7 23.9 15.7 38.1 16.4-43.5 10.5-74.9-11-103.8-40.1 1 14.8 9.6 24.9 18.3 35-1.3 0-2.1-.2-2.8-.6-24.4-12.7-39.7-32.2-42.4-59.9-2.1-21.8 2-42.3 19.3-58 8.9-8.1 19.2-13.8 30.7-17 2.6-.7 6-.5 8.4.6 20.1 8.7 40.6 16.2 62.5 18.9 10.5 1.3 21.2 1.9 31.4-2.1 9.3-3.7 13.1-10.2 11.8-20-1.2-9.5-6.1-17.3-12.3-24.2-24.8-27.7-55.4-44.4-93-46.6-4.8-.3-8.5-1.5-12.4-4.5C102.5-4.1 85.8-2 72.9 13c-1.3 1.5-2.6 2.9-3.8 4.4-6.3 7-13.9 10.6-23.5 11.5-13.1 1.3-22.5 5.6-21.6 23.4.1 1.4 0 2.8-.1 4.2-.2 8-2.3 14.9-9.4 19.6-2.6 1.7-4.6 4.3-7 6.5-6 5.5-7.2 12.3-5.1 19.9 1.3 4.6 2.8 9.1 4 13.7 1.7 6.4 1.5 12.7-3 18.1-4.9 5.8-4.2 11.6-.6 17.5 1.8 2.8 4 5.4 5.8 8.2 3.7 5.9 8.1 11.6 10.8 18 23.1 56.3 85 91.9 143.2 85.7 45.2-4.8 76.9-29 98-68.4 1.4-2.5 2.3-5.3 4-9.5-14.7 10.7-28.2 20.2-45.3 22.7 34-20.5 51.5-49.5 47.6-89.8zM166.2 53.5c3.8 0 6.1 2.2 6.1 5.9 0 3.9-2.4 6.3-6.4 6.2-3.7-.1-5.7-2.4-5.8-5.9.2-4.1 2.3-6.2 6.1-6.2z"/></svg>